<?xml version="1.0" encoding="utf-8"?>
<!-- Generator: Adobe Illustrator 26.0.0, SVG Export Plug-In . SVG Version: 6.00 Build 0)  -->
<svg version="1.1" id="Capa_1" xmlns="http://www.w3.org/2000/svg" xmlns:xlink="http://www.w3.org/1999/xlink" x="0px" y="0px"
	 viewBox="0 0 100 100" style="enable-background:new 0 0 100 100;" xml:space="preserve">
<style type="text/css">
	.st0{fill:#ABAA6A;}
</style>
<path class="st0" d="M97.6,58c-0.4-2.3-1.6-4.1-3.3-5.4c-0.1-0.2-0.3-0.3-0.3-0.5c0-1,0-2.1-0.1-3.1c-0.1-1.4-0.3-2.7-0.5-4
	c-0.3-1.5-0.6-2.8-1-4.3c-0.5-1.6-0.9-3.1-1.6-4.7c-0.5-1.3-1-2.5-1.7-3.7c-0.2-0.4-0.2-0.7,0.1-1c0.6-0.6,1-1.4,1.4-2.2
	c1.1-3.3,0.7-6.4-1.7-9.1c-1.7-1.9-3.8-2.9-6.3-2.9c-1.6,0-3,0.3-4.4,1c-0.2,0.2-0.5,0.2-0.7,0c-0.3-0.2-0.5-0.4-0.8-0.6
	c-1.1-1-2.5-1.8-3.8-2.6c-2-1.1-4-2.2-6.1-3c-2.2-0.8-4.4-1.7-6.7-2.2c-0.3,0-0.5-0.1-0.5-0.4c-0.5-2.6-1.9-4.6-4.1-5.9
	c-2.9-1.8-5.8-1.8-8.8-0.2c-2.3,1.1-3.7,3.1-4.3,5.5c-0.1,0.5-0.3,0.7-0.8,0.7c0,0-0.1,0-0.2,0c-1.3,0.3-2.5,0.6-3.8,0.9
	c-1.4,0.4-2.7,0.9-4.1,1.5c-1.1,0.3-2.2,0.9-3.2,1.5c-2.2,1.3-4.5,2.5-6.5,4.1c-0.3,0.2-0.5,0.6-1,0.4c-1.6-0.6-3.1-0.8-4.8-0.5
	c-0.9,0.1-1.8,0.4-2.6,0.8c-2.4,1.4-4.1,3.3-4.6,6.2c-0.3,2,0,4,0.9,5.7c0.2,0.4,0.2,0.6,0,1c0,0-0.1,0.1-0.1,0.2
	c-0.4,0.7-0.9,1.5-1.3,2.3c-0.3,0.6-0.6,1.4-0.9,2.1c-0.2,0.6-0.5,1.3-0.7,1.9c-0.1,0.3-0.1,0.7-0.3,1.1c-0.4,0.8-0.6,1.7-0.8,2.5
	c-0.3,1.3-0.5,2.5-0.7,3.8c-0.2,1.6-0.5,3.1-0.5,4.7c0,0.4,0.1,0.8,0,1.3c-0.2,0.9-0.2,1.9,0,2.8c0.1,0.4,0,0.7-0.4,0.9
	c-2.2,1.5-3.5,3.7-3.8,6.4c-0.2,2.4,0.5,4.6,2.1,6.5c1.5,1.8,3.3,2.7,5.6,3c0.2,0.1,0.4,0.2,0.5,0.4c0.7,1.5,1.5,2.9,2.4,4.4
	c1,1.6,2.2,3.1,3.3,4.6c0.4,0.5,0.8,0.9,1.3,1.4c0.9,1,2,2.1,3,3c0.6,0.5,1.5,0.9,1.1,1.9c0,1.1,0.1,2.2,0.4,3.4
	c1.1,3.1,3.2,5.3,6.6,5.9c2.5,0.4,4.9,0,7-1.6c0.2-0.1,0.3-0.2,0.5-0.1c1,0.4,2,0.5,3,0.8c1,0.3,2.2,0.5,3.2,0.7
	c1.3,0.3,2.5,0.4,3.8,0.5c1.5,0.2,3,0.2,4.5,0.2c1.6,0,3-0.1,4.6-0.3c1.4-0.2,2.6-0.4,4-0.6c0.9-0.2,1.9-0.3,2.7-0.7
	c0.3-0.1,0.4,0.1,0.5,0.2c0.4,0.6,1,1,1.6,1.5c2.1,1.7,4.5,2.2,7,1.7c3.5-0.7,5.8-2.8,6.9-6.4c0.5-1.6,0.3-3,0-4.6
	c-0.1-0.3,0-0.5,0.2-0.7c0.5-0.5,1.3-1,1.8-1.6c1.6-1.6,3.1-3.1,4.5-4.8c0.7-0.9,1.4-1.8,2-2.7c0.8-1.3,1.6-2.5,2.3-3.9
	c0.9-1.5,1.6-3.1,2.3-4.7c0.1-0.2,0.1-0.2,0.3-0.3c1.4-0.4,2.7-1,3.8-2.1C97.2,63.9,98.2,61.2,97.6,58z M82.4,21.1
	c2.5,0,4.6,2,4.6,4.6c0,2.5-2.1,4.6-4.5,4.6c-2.5,0-4.6-2.1-4.6-4.6C77.8,23.1,79.9,21.1,82.4,21.1z M50.9,5.7
	c2.6,0,4.6,2.1,4.6,4.6s-2,4.5-4.6,4.5c-2.5,0-4.6-2.1-4.6-4.5C46.3,7.7,48.4,5.7,50.9,5.7z M19.7,21c2.5,0.1,4.5,2.1,4.5,4.6
	c0,2.5-2,4.6-4.5,4.6s-4.6-1.9-4.6-4.6C15.1,22.7,17.5,21,19.7,21z M10.8,66.2c-2.5,0-4.6-2.1-4.6-4.6c0-2.5,2.1-4.6,4.6-4.6
	c2.5,0,4.6,2,4.6,4.6C15.4,64.1,13.3,66.2,10.8,66.2z M30.4,91.1c-2.5,0-4.6-2.1-4.6-4.6s2.1-4.5,4.6-4.5c2.5,0,4.5,2.1,4.5,4.6
	C34.9,89.1,32.8,91.1,30.4,91.1z M69.3,93.6c-2.4,0-4.5-2.1-4.6-4.5c0-2.5,2-4.6,4.5-4.6c2.7-0.1,4.7,1.9,4.7,4.5
	S71.8,93.6,69.3,93.6z M85.5,69.8c-1,1-1.7,2.4-2.5,3.7c-0.7,1.1-1.6,2.2-2.4,3.2c-1.1,1.6-2.6,2.8-4,4.2c-0.4,0.4-0.9,0.7-1.4,1.1
	c-0.2,0.2-0.3,0-0.4-0.1c-1.1-1-2.6-1.8-4.2-2.1c-2.9-0.5-5.4,0.2-7.6,2.2c-2.2,2-3.1,4.5-2.7,7.4c0,0.4-0.1,0.5-0.4,0.6
	c-1.4,0.3-2.6,0.6-4,0.8c-0.9,0.1-1.9,0.2-2.8,0.3c-1.9,0.2-3.7,0.1-5.5,0.1c-1.3,0-2.4-0.2-3.7-0.4c-1.4-0.2-2.6-0.4-4-0.8
	c-0.3-0.1-0.6-0.1-0.9-0.2c-0.7-0.2-0.7-0.2-0.5-0.9c0.6-1.7,0.4-3.2,0.1-4.9c0-0.2,0.1-0.4,0-0.6c-0.6-1.6-1.6-2.8-2.8-3.9
	c-0.9-0.8-2-1.4-3.1-1.7c-1.7-0.5-3.4-0.4-5.1,0c-1.7,0.5-3,1.5-4.2,2.7c-0.2,0.2-0.3,0.3-0.6,0.1c-0.7-0.6-1.4-1.3-2-2
	c-0.5-0.6-1.1-1.1-1.7-1.9c-0.9-1.3-2-2.5-2.8-4c-0.6-0.9-1.1-2-1.8-2.9c-0.3-0.5-0.3-0.7,0.2-0.9c2.5-1.5,4.1-3.5,4.5-6.5
	c0.3-2.1-0.1-4-1.3-5.7c-1.5-2.3-3.5-3.7-6.3-4.1c-0.4-0.1-0.9,0-1.4,0c-0.3,0-0.4-0.1-0.4-0.4c0-1.6,0.1-3.2,0.3-4.8
	c0.1-1.1,0.3-2.2,0.5-3.2c0.3-1.8,0.8-3.5,1.4-5.2c0.6-1.9,1.5-3.7,2.3-5.4c0.3-0.7,0.4-0.7,1-0.3h0.1c0.8,0.2,1.5,0.5,1.3,1.6
	c-0.1,0.2,0.1,0.5,0.2,0.8c0.1,0.4,0.5,0.5,0.9,0.2c0.4-0.3,0.6-0.8,0.7-1.4c0.1-0.3,0.2-0.4,0.6-0.4c0.3,0,0.4,0.1,0.3,0.4
	c-0.3,0.8-0.3,1.8-0.2,2.6c0.4,2.2,1,4.2,2.8,5.7c0.3,0.2,0.6,0.4,0.9,0.5c1.4,0.5,2.3,1.7,3.2,2.6c1,1,2.3,1.8,3.8,2.1
	c0.5,0.1,0.8,0.6,0.9,1.1c0.2,1.6-0.1,2.2-1.6,3c-1.3,0.6-1.8,1.7-1.4,3.2c0.2,0.8,0.5,1.7,1.1,2.3c0.4,0.4,1,0.5,1.6,0.7
	c0.6,0.3,1,0.8,1.1,1.6c0,1.7,0.4,3.3,1,4.9c0.3,0.7,1,1,1.8,1.3c0.5,0.2,1.1,0.2,1.6,0.6c0.3,0.3,0.4,0.6,0.4,1
	c0,1.1,0.1,2.3,0,3.4c-0.1,0.7-0.1,1.6-0.2,2.3c-0.2,1,0.2,2.1,0.6,3.1c0.8,1.7,1.5,3.4,1.8,5.2c0.2,0.9,0.2,2,0.4,2.9
	c0.1,0.7,0.9,1.5,1.7,1.6c1.1,0.2,2-0.3,2.4-1.8c0.3-0.8,0.6-1.7,0.9-2.5c0.2-0.6,0.4-1.3,0.5-2c0.3-1.5,1-2.7,1.9-3.9
	c0.6-0.8,0.9-1.8,1.1-2.8c0.2-1,0.6-1.9,1.6-2.4c1.6-0.7,2.8-1.7,3.9-3c0.6-0.8,0.9-1.8,0.9-2.8c0-0.6,0-1.3,0-1.9
	c0-0.9,0.2-1.7,0.8-2.3c0.8-0.8,0.9-1.9,0.8-3c-0.1-1.1-0.7-2.2-1.5-3c-0.7-0.7-1.7-1.5-2.8-1.8c-0.7-0.2-1.5-0.3-2.2-0.2
	c-1.5,0.1-2.9-0.2-4.1-1.3c-0.6-0.5-0.5-1.1,0-1.8c0.3-0.4,0.3-0.9,0-1.3c-0.7-0.8-1.6-1.3-2.5-1.8c-0.7-0.4-1.5-0.8-1.8-1.8
	c-0.3-0.8-1.1-1.3-2.1-1.3c-1.5-0.1-2.9,0.1-4.3,0.8c-0.7,0.4-1.5,0.4-2.2-0.1c-0.6-0.5-1.1-0.2-1.8,0.2c-0.9,0.6-1.9,0.8-2.9,0.3
	c-0.7-0.4-1.5-1-1.7-2c-0.2-1-0.6-2-0.9-2.9c-0.2-0.5-0.6-0.9-1.3-1c-0.7-0.2-1.3-0.5-1.5-1.3c-0.1-0.8,0-1.6,0.5-2.3
	c0.2-0.3,0.5-0.5,0.8-0.7c0.5-0.4,0.9-0.9,1.1-1.7c0.2-0.6,0.4-1.1,0.7-1.8c0.2-0.4,0.6-0.6,0.9-0.4c0.7,0.4,1.5,1,1.7,1.9
	c0.2,0.7,1.6,1.7,2.2,1.7c0.4,0,0.7-0.3,0.5-0.8c-0.2-0.6-0.2-1.3-0.3-1.9c-0.1-1,0.3-2,0.8-2.8c0.7-1.1,1.6-2.1,2.6-2.8
	c0.9-0.6,2.1-0.9,3.2-0.9c0.4,0,0.8,0,1.1-0.2c0.4-0.1,0.7-0.4,0.7-0.9c0-0.4,0-0.8,0-1.3c0-0.8,0.9-1.7,1.8-1.5
	c0.6,0.1,1.1,0.3,1.8,0.5c0.3,0.1,0.5,0.1,0.8,0.1c0.6,0,0.8-0.3,0.7-0.8c-0.3-1.4-1.3-2.2-2.4-2.9c-0.6-0.3-1.4-0.5-2-0.5
	c-0.8-0.1-1.7,0.2-2.4,0.7c-0.7,0.4-1.1,1-1.4,1.9c-0.2,0.7-0.6,0.9-1.4,0.9c-1.3,0-2.3-0.2-3.1-1.1c-0.3-0.3-0.3-0.9,0-1.3
	c1.3-1.5,2.9-2.2,4.9-2.1c1.1,0,2.4,0,3.4-0.4c0.1,0,0.2-0.1,0.3-0.1c0.7-0.3,1.4-0.9,2.3-0.8c0.5-0.1,0.6-0.1,0.7-0.1
	c0.2-0.2,0.4-0.1,0.6,0.1c1.9,2.1,4.1,3.3,7,3.2c3.2-0.1,5.7-1.7,7.4-4.5c0.1-0.2,0.2-0.3,0.3-0.5c0.2-0.3,0.4-0.3,0.7-0.2
	c1.6,1,2.7,2.3,3.2,4.2c0.1,0.3,0.1,0.7,0.2,1c0.2,0.4-0.2,0.8-0.7,0.8c-1.3,0-1.3,0.1-1.3,1.4c0,0.7,0,0.7,0.6,0.7
	c0.9,0,1.1,0.3,1.5,1.3c0.3,0.9-0.1,1.7-0.2,2.5C63,26.5,63.2,27,64,27.5c1.6,0.6,2.8,0.3,4-0.8c0.3-0.3,0.4-0.6,0.4-0.9
	c0.1-1.7,1-2.7,2.5-3.4c0.5-0.2,1,0.1,1,0.7c0,0.8,0.1,1.6,0.6,2.3c0,0.1,0.1,0.1,0.1,0.2c0.7,0.2,0.8,0.8,0.9,1.5
	c0.1,1,0.5,2,0.9,2.9c0,0.1,0.2,0.2,0,0.3c-0.1,0.1-0.2,0-0.3-0.1c-0.3-0.3-0.5-0.7-0.5-1.1c0-0.2,0-0.5-0.1-0.7
	c-0.1-0.3-0.4-0.5-0.7-0.5c-1.1,0-2.3-0.1-3.4,0.1c-1.8,0.4-3.5,0.9-5,2.1c-1,0.8-1.1,1.9-0.8,3.1c0.3,1,0.8,1.8,1.9,2.3
	c0.9,0.4,1.3,1.6,0.9,2.6c-0.3,0.9-0.8,1.8-1.6,2.5c-0.6,0.6-0.4,1,0.2,1.5c0.5,0.3,1.1,0.5,1.8,0.6c0.4,0.1,0.9,0.1,1.4,0.2
	c0.4,0,0.7,0.5,0.5,0.9c-0.4,0.8-0.2,1.6,0.3,2.3c0.2,0.4,0.4,0.7,0.5,1.1c0.3,1,1.3,1.4,2.2,1.4c1.1,0.1,2.1-0.4,2.9-1.1
	c0.5-0.4,1-0.4,1.4,0.2c0.6,1.1,1.5,1,2.4,0.9c0.3,0,0.5-0.1,0.8-0.2c0.7-0.2,1.1,0.3,0.9,1c-0.1,0.3-0.2,0.7-0.4,1
	c-0.3,0.4-0.3,0.9-0.3,1.5c0,0.6,0.2,1,0.6,1.5c0.1,0.1,0.1,0.2,0.2,0.2c0.5,0.4,0.6,0.8,0.3,1.5c-0.4,0.9-0.6,1.9-0.8,2.9
	c-0.2,1,0.1,1.9,0.3,2.8c0.2,0.9,0.2,2,0,2.9c-0.3,1.6-1.1,2.9-1.6,4.4c-0.2,0.8-0.4,1.6-0.4,2.4c0,0.2-0.1,0.3-0.1,0.5
	c-0.1,1,0.4,2.6,1.7,3.1c0.6,0.2,0.9-0.1,1.3-0.4c0.4-0.3,0.6-0.8,0.9-1.4c0.4-0.6,0.9-1.1,1.4-1.8c0.4-0.5,0.9-0.8,1.5-1.4
	c0.2-0.2,0.5-0.2,0.8,0C85.7,69.3,85.7,69.5,85.5,69.8z M88.9,63.9c-2.5,0-4.5-2-4.5-4.6s2-4.5,4.6-4.5s4.6,2,4.5,4.6
	C93.5,62,91.5,63.9,88.9,63.9z"/>
</svg>
